<?xml version="1.0" encoding="UTF-8" standalone="no"?>
<svg
   xmlns:dc="http://purl.org/dc/elements/1.1/"
   xmlns:cc="http://creativecommons.org/ns#"
   xmlns:rdf="http://www.w3.org/1999/02/22-rdf-syntax-ns#"
   xmlns:svg="http://www.w3.org/2000/svg"
   xmlns="http://www.w3.org/2000/svg"
   xmlns:xlink="http://www.w3.org/1999/xlink"
   xmlns:sodipodi="http://sodipodi.sourceforge.net/DTD/sodipodi-0.dtd"
   xmlns:inkscape="http://www.inkscape.org/namespaces/inkscape"
   style="isolation:isolate"
   viewBox="0 0 848 848"
   width="848"
   height="848"
   version="1.1"
   id="svg189"
   sodipodi:docname="pluginIcon.svg"
   inkscape:version="1.0.1 (c497b03c, 2020-09-10)">
  <metadata
     id="metadata193">
    <rdf:RDF>
      <cc:Work
         rdf:about="">
        <dc:format>image/svg+xml</dc:format>
        <dc:type
           rdf:resource="http://purl.org/dc/dcmitype/StillImage" />
        <dc:title />
      </cc:Work>
    </rdf:RDF>
  </metadata>
  <sodipodi:namedview
     pagecolor="#ffffff"
     bordercolor="#666666"
     borderopacity="1"
     objecttolerance="10"
     gridtolerance="10"
     guidetolerance="10"
     inkscape:pageopacity="0"
     inkscape:pageshadow="2"
     inkscape:window-width="1038"
     inkscape:window-height="942"
     id="namedview191"
     showgrid="false"
     inkscape:zoom="0.4665165"
     inkscape:cx="484.2526"
     inkscape:cy="397.60379"
     inkscape:window-x="642"
     inkscape:window-y="29"
     inkscape:window-maximized="0"
     inkscape:current-layer="layer2"
     inkscape:document-rotation="0" />
  <defs
     id="defs176">
    <linearGradient
       inkscape:collect="always"
       id="linearGradient975">
      <stop
         style="stop-color:#727278;stop-opacity:1;"
         offset="0"
         id="stop971" />
      <stop
         style="stop-color:#727278;stop-opacity:0;"
         offset="1"
         id="stop973" />
    </linearGradient>
    <linearGradient
       inkscape:collect="always"
       id="linearGradient953">
      <stop
         style="stop-color:#00ffff;stop-opacity:1;"
         offset="0"
         id="stop949" />
      <stop
         style="stop-color:#00ffff;stop-opacity:0;"
         offset="1"
         id="stop951" />
    </linearGradient>
    <rect
       x="119.24226"
       y="298.10566"
       width="820.53768"
       height="342.20799"
       id="rect197" />
    <clipPath
       id="_clipPath_V48nfiVAcvaK4s1wvLLO0KNQ8iUOO3rg">
      <rect
         width="848"
         height="848"
         id="rect173" />
    </clipPath>
    <radialGradient
       inkscape:collect="always"
       xlink:href="#linearGradient953"
       id="radialGradient955"
       cx="418.28754"
       cy="212.44029"
       fx="418.28754"
       fy="212.44029"
       r="39.263197"
       gradientTransform="matrix(0.81832567,0.11580243,-0.32084571,2.2672779,144.15267,-305.78987)"
       gradientUnits="userSpaceOnUse" />
    <linearGradient
       inkscape:collect="always"
       xlink:href="#linearGradient975"
       id="linearGradient977"
       x1="208.77769"
       y1="321.98663"
       x2="289.83444"
       y2="191.62857"
       gradientUnits="userSpaceOnUse" />
  </defs>
  <g
     clip-path="url(#_clipPath_V48nfiVAcvaK4s1wvLLO0KNQ8iUOO3rg)"
     id="g187"
     transform="translate(94.989599,-30.31583)"
     style="fill:none;fill-opacity:0.81967211">
    <g
       id="Layer_1-2"
       style="fill:none;fill-opacity:0.81967211">
      <path
         d="m 86.35,0 h 675.3 C 809.308,0 848,38.692 848,86.35 v 675.3 C 848,809.308 809.308,848 761.65,848 H 86.35 C 38.692,848 0,809.308 0,761.65 V 86.35 C 0,38.692 38.692,0 86.35,0 Z"
         style="fill:none;stroke:none;stroke-miterlimit:10;fill-opacity:0.81967211"
         id="path178" />
    </g>
  </g>
  <g
     inkscape:groupmode="layer"
     id="layer1"
     inkscape:label="periscope"
     style="display:inline">
    <g
       id="g1050">
      <path
         style="fill:none;stroke:#000000;stroke-width:19.653;stroke-linecap:butt;stroke-linejoin:miter;stroke-miterlimit:4;stroke-dasharray:none;stroke-opacity:1"
         d="M 393.41773,164.49634 C 183.59539,116.56829 191.72231,310.94326 183.59539,492.00489"
         id="path924" />
      <g
         id="g1021">
        <ellipse
           style="fill:url(#radialGradient955);fill-opacity:1;stroke:#000000;stroke-width:19.5139;stroke-miterlimit:4;stroke-dasharray:none;stroke-opacity:1"
           id="path77"
           cx="419.64963"
           cy="200.9106"
           rx="29.506247"
           ry="69.927353"
           transform="rotate(4.1)" />
        <path
           style="isolation:isolate;fill:url(#linearGradient977);fill-opacity:1;stroke:#000000;stroke-width:16.2008;stroke-miterlimit:4;stroke-dasharray:none;stroke-opacity:1"
           d="m 218.17743,494.66917 c -6.66948,-0.74244 -14.85476,-1.62324 -18.1895,-1.95733 l -6.06316,-0.60743 1.18184,-30.51535 c 3.96538,-102.38667 7.96172,-144.02604 17.60268,-183.4092 16.22616,-66.28358 46.885,-100.66896 97.00647,-108.79747 16.06814,-2.60587 41.34714,-1.98797 62.72243,1.53315 l 6.72374,1.10759 -2.81968,6.24091 c -4.03624,8.93357 -7.60578,20.85809 -9.73308,32.51463 -2.50235,13.71167 -2.53672,46.08927 -0.0604,56.90824 0.9306,4.06582 1.69202,7.72754 1.69202,8.13717 0,0.40962 -3.97896,0.098 -8.84212,-0.69251 -13.62252,-2.21433 -42.36076,-2.13407 -52.07944,0.14545 -29.05189,6.81414 -45.47418,27.02442 -53.63582,66.00756 -4.86606,23.24217 -6.6442,42.45265 -13.43201,145.11551 l -0.65143,9.85264 -4.6481,-0.11683 c -2.55643,-0.0643 -10.10493,-0.72427 -16.77441,-1.46673 z"
           id="path961" />
        <path
           style="display:inline;isolation:isolate;fill:none;stroke:#000000;stroke-width:17.6877;stroke-linecap:butt;stroke-linejoin:miter;stroke-miterlimit:4;stroke-dasharray:none;stroke-opacity:1"
           d="M 390.90584,290.79415 C 246.60748,256.87144 263.07626,322.76164 248.55001,498.64647"
           id="path924-2"
           sodipodi:nodetypes="cc" />
      </g>
    </g>
  </g>
  <g
     inkscape:groupmode="layer"
     id="layer2"
     inkscape:label="text"
     style="display:inline">
    <text
       xml:space="preserve"
       id="text195"
       transform="matrix(0.88553052,-0.35728175,0.4032003,0.96658882,0,0)"
       style="font-style:normal;font-variant:normal;font-weight:normal;font-stretch:normal;font-size:22.7195px;font-family:'Marker Felt';-inkscape-font-specification:'Marker Felt';word-spacing:0px;isolation:isolate;stroke-width:1.89329"
       x="-266.56546"
       y="-219.78838"><tspan
         x="-40.804749"
         y="680.86298"
         id="tspan71"
         style="font-style:normal;font-variant:normal;font-weight:normal;font-stretch:normal;font-family:'Marker Felt';-inkscape-font-specification:'Marker Felt';stroke-width:1.89329"><tspan
           style="font-style:normal;font-variant:normal;font-weight:normal;font-stretch:normal;font-size:363.513px;font-family:'Marker Felt';fill:#4682b4;stroke-width:1.89329"
           id="tspan69">LogIt </tspan></tspan></text>
  </g>
  <path
     id="path1031"
     style="fill:#ccccff;fill-opacity:0.81967211;stroke:none;stroke-width:34.3653;stroke-miterlimit:4;stroke-dasharray:none;stroke-opacity:1;opacity:0"
     d="M 518.79297,-29.996094 C 148.60441,-29.955569 160.65464,-30.337725 139.61523,-18.007812 124.7587,-9.3013032 111.6832,5.0714902 104.14648,20.980469 L 97.341797,35.34375 v 357.97266 357.97265 l 6.783203,14.31836 c 3.73081,7.87492 10.72301,18.59177 15.53711,23.81446 9.46667,10.27011 28.91341,21.72345 42.23828,24.87695 4.91193,1.16247 152.80593,1.8313 360.93555,1.63281 l 352.61328,-0.33594 12.40039,-5.00586 c 27.24131,-10.99519 49.18947,-40.06711 53.08789,-70.32031 2.67489,-20.75888 2.50919,-675.241542 -0.17578,-694.20703 -5.39505,-38.1084549 -32.74745,-66.759995 -70.58399,-73.935547 -7.35562,-1.394965 -131.80462,-2.147087 -351.38476,-2.123047 z M 331.90234,147.30664 c 17.14609,-0.0698 35.84278,1.08654 47.31641,3.36719 10.08906,2.00543 17.42182,2.47975 19.6875,1.27344 9.35307,-4.97986 23.96362,-0.01 31.63477,10.76367 15.15837,21.28797 18.17964,70.28124 6.63867,107.64648 -11.41843,36.96866 -39.66474,51.89589 -57.27539,30.26953 -3.53754,-4.34419 -41.58154,-9.80368 -57.3711,-8.23242 -34.20187,3.40355 -46.76362,21.25326 -53.68164,76.27149 -2.62874,20.90609 -9.68183,110.54535 -9.67383,122.95117 0.002,3.17911 -1.07878,3.71203 -5.35546,2.63867 -2.94738,-0.73985 -5.35938,-0.65379 -5.35938,0.19141 0,1.33099 57.52901,120.43404 59.22266,122.60937 0.34728,0.44607 8.14414,-7.03322 17.32617,-16.62109 11.39718,-11.90088 18.25263,-17.42983 21.60351,-17.42383 7.16028,0.0131 19.74338,7.09158 28.13477,15.82812 6.05492,6.30398 7.4642,9.58019 8.15625,18.94532 1.28169,17.34511 -3.49733,24.64871 -22.13477,33.82812 -19.6695,9.68774 -21.76468,11.57273 -27.64843,24.87695 -3.27384,7.40274 -7.65953,12.97808 -13.13282,16.69727 -13.73336,9.33206 -32.83866,5.65249 -46.57031,-8.9707 -5.44607,-5.79966 -6.00606,-7.67058 -5.04101,-16.88282 1.04268,-9.95332 -0.5212,-13.66709 -39.82032,-94.49609 l -40.90625,-84.13281 h -7.10742 -7.10742 v -14.04102 c 0,-16.18892 -3.46395,-24.49961 -14.47266,-34.72461 -6.49544,-6.03305 -7.31416,-7.88431 -6.125,-13.83007 1.63259,-8.163 7.94586,-15.39473 16.55078,-18.95899 7.36583,-3.05104 7.6857,-4.29228 9.39649,-36.3418 7.0936,-132.88969 46.32217,-205.12614 120.04883,-221.0664 7.33318,-1.58549 19.73056,-2.38125 33.0664,-2.43555 z m 423.25,71.39453 c 7.10428,0.07 14.34767,3.13847 20.17578,9.49805 6.50052,7.09329 7.06265,8.7056 5.74415,16.50976 -1.05158,6.22426 -0.39489,11.01425 2.3457,17.0918 l 3.80859,8.44531 6.17774,-10.70117 c 6.84988,-11.86434 11.18372,-14.16457 22.63867,-12.01562 15.1517,2.84247 24.00114,13.6136 24.02344,29.23828 0.017,11.9434 -2.42941,14.35984 -16.85743,16.64062 -10.39841,1.64376 -19.30489,8.18116 -19.49609,14.31055 -0.0392,1.25766 11.12481,29.2302 24.80859,62.16211 24.75085,59.56636 24.94461,59.93769 37.51172,71.74023 10.21093,9.58971 12.63282,13.15379 12.63282,18.5918 0,7.6861 -7.9792,18.38962 -17.29883,23.20899 -8.29879,4.29146 -21.03788,3.9277 -28.83008,-0.82422 -7.90223,-4.81904 -15.29254,-20.09118 -44.0293,-90.99219 l -20.85742,-51.46094 -3.35351,6.48633 c -1.8448,3.56744 -5.56384,7.07755 -8.26368,7.80078 -8.69866,2.33016 -25.2043,1.45954 -32.84375,-1.73242 -6.49576,-2.71411 -7.43359,-4.06257 -7.43359,-10.6875 0,-6.38389 1.27042,-8.42481 8.03906,-12.91406 12.12971,-8.04495 26.97038,-28.03939 25.41406,-34.24024 -1.49731,-5.96577 -12.44148,-29.10418 -19,-40.17187 l -4.66601,-7.87305 4.2168,-10.10547 c 4.92541,-11.80485 15.0094,-18.10815 25.39257,-18.00586 z m -132.66796,13.30274 c 3.24054,-0.0681 6.6255,0.12685 10.10546,0.60547 15.19854,2.09034 21.00391,8.17834 21.00391,22.02734 0,8.94672 6.84025,26.242 46.45703,117.45703 32.04594,73.7837 48.69421,109.60767 53.66797,115.48242 11.91,14.06748 11.44012,23.36277 -1.51953,30.06445 -3.46551,1.7921 -11.87799,4.00549 -18.69336,4.91797 -25.95801,3.4754 -38.30969,-3.25471 -36.41992,-19.8457 0.87061,-7.6432 -4.12772,-20.11401 -42.99805,-107.25195 -49.57694,-111.13955 -52.66427,-117.65485 -59.73047,-126.09766 -5.862,-7.00402 -6.42145,-14.0516 -1.82031,-22.94922 4.57545,-8.84799 15.90491,-14.11505 29.94727,-14.41015 z m -35.97852,113.60547 c 4.37606,-0.0126 8.4629,0.63743 11.0918,2.0664 5.10196,2.77326 32.48898,60.90546 71.99609,152.81836 34.08002,79.28686 35.44877,101.5884 7.11914,116.01172 -12.13588,6.17871 -36.12174,8.86159 -46.69922,5.22461 -2.94738,-1.01345 -9.50348,-1.93918 -14.57031,-2.05664 -7.04226,-0.16334 -10.45245,-1.54902 -14.4707,-5.88477 -11.26191,-12.15183 -3.23788,-25.35354 19.41015,-31.9375 11.02401,-3.20478 11.98266,-3.14721 22.32227,1.30078 14.36498,6.17965 18.28166,4.60627 16.48633,-6.62109 -1.45806,-9.11816 -19.78584,-52.77198 -22.98633,-54.75 -1.04744,-0.64735 -1.9043,1.72699 -1.9043,5.27539 0,20.12034 -8.45965,37.46509 -21.58398,44.25195 -30.03877,15.53364 -75.89283,-34.89271 -97.52735,-107.2539 -7.17985,-24.0145 -8.45112,-61.27355 -2.53125,-74.17774 8.89124,-19.38118 29.36659,-27.77415 49.11524,-20.13086 3.0514,1.18096 3.40832,0.1915 2.46679,-6.82812 -0.87118,-6.4951 -0.1654,-9.05592 3.37696,-12.26172 3.49747,-3.16516 11.59523,-5.0259 18.88867,-5.04687 z m -171.91797,71.76367 c 30.92478,-0.15714 54.27672,20.09013 76.49609,66.32226 19.32457,40.20887 26.24499,85.26794 17.58204,114.47657 -4.31826,14.55968 -19.21448,30.38023 -31.91602,33.89648 -13.77499,3.81341 -26.81145,2.84551 -39.16602,-2.90625 -31.45572,-14.64445 -60.71743,-59.92322 -73.52148,-113.76758 -6.0567,-25.46997 -5.2475,-59.70773 1.71875,-72.77539 7.82431,-14.67725 28.05052,-25.14063 48.80664,-25.24609 z M 545.35156,728.7793 c 24.20582,-0.0525 15.47178,0.45793 73.40235,11.99414 18.05605,3.59566 36.10282,7.3155 53.94336,11.86133 14.0887,3.58985 28.01037,7.85498 41.77734,12.52929 5.36968,1.82317 13.60162,1.60141 15.53711,6.93164 2.49712,6.87691 -3.52191,14.20166 -5.2832,21.30274 -5.43533,-0.50129 -10.88508,-0.87105 -16.30664,-1.50391 -2.29033,-0.26735 -4.56137,-0.67905 -6.83399,-1.07422 -0.66199,-0.0638 -1.33969,-0.1479 -2.04101,-0.26562 -0.33539,-0.0563 -0.54557,-0.0927 -0.85157,-0.14258 -1.21615,0.0487 -2.89394,0.47982 -2.83789,-0.50195 8e-5,-0.001 -8e-5,-0.003 0,-0.004 -3.42368,-0.75189 -3.19833,-1.9265 -0.9082,-8.60352 -27.48009,-8.70198 -47.7026,-12.88397 -80.0918,-19.45117 -20.54951,-4.1666 -41.06077,-8.67626 -61.82226,-11.60937 -6.72116,-0.94954 -13.57538,0 -20.36328,0 -21.22003,0 -21.22004,-21.43555 0,-21.43555 5.09288,0 9.22171,-0.0198 12.67968,-0.0273 z" />
</svg>
